<svg width="611" height="813" viewBox="0 0 611 813" fill="none" xmlns="http://www.w3.org/2000/svg">
	<path d="M268.487 635.627C268.487 635.627 270.889 665.885 257.823 685.828C244.757 705.771 232.04 718.488 239.604 741.901L337.933 692.049L325.904 623.968L268.487 635.627Z" fill="#FF2633" />
	<path d="M267.093 674.455L289.586 669.969" stroke="white" stroke-width="1.42936" stroke-miterlimit="10" stroke-linecap="round" />
	<path d="M372.162 698.847C372.162 698.847 379.663 729.588 369.515 752.277C359.367 774.966 348.381 790.166 360.04 812.943L452.991 745.339L429.331 677.261L372.162 698.847Z" fill="#FF2633" />
	<path d="M376.984 743.375L400.378 738.423" stroke="white" stroke-width="1.49021" stroke-miterlimit="10" stroke-linecap="round" />
	<path d="M300.403 222.329C300.403 222.329 294.389 192.028 304.971 181.371C315.553 170.714 332.777 166.042 341.689 167.797C347.749 169.007 355.62 171.774 356.698 187.647C357.777 203.52 355.394 208.82 355.394 208.82C355.394 208.82 349.437 229.768 338.011 231.775C326.585 233.783 304.343 233.727 300.403 222.329Z" fill="#F3ABAA" />
	<path d="M341.484 169.129C341.484 169.129 342.159 176.765 342.976 188.726" stroke="#FF2633" stroke-width="0.844939" stroke-miterlimit="10" stroke-linecap="round" />
	<path d="M326.896 171.924C326.896 171.924 328.2 182.797 330.283 194.823C331.765 203.323 340.311 205.931 343.829 198.754" stroke="#FF2633" stroke-width="0.844939" stroke-miterlimit="10" stroke-linecap="round" />
	<path d="M314.954 178.388C314.954 178.388 316.831 193.088 317.45 197.15C318.069 201.212 320.649 204.101 323.482 204.101C327.891 204.101 329.701 202.094 330.752 198.754" stroke="#FF2633" stroke-width="0.844939" stroke-miterlimit="10" stroke-linecap="round" />
	<path d="M317.467 200.105C317.467 200.105 315.328 204.195 313.189 204.946C311.051 205.696 306.763 205.884 305.497 202.919C304.428 200.415 303.79 197.141 304.005 192.122" stroke="#FF2633" stroke-width="0.844939" stroke-miterlimit="10" stroke-linecap="round" />
	<path d="M336.353 213.886C336.353 213.886 329.364 206.616 332.506 196.719C335.649 186.822 340.189 192.028 340.189 192.028C340.189 192.028 350.03 201.165 352.601 204.608C354.627 207.329 357.835 214.927 354.693 219.28C352.118 222.766 348.846 225.68 345.086 227.835C343.829 228.483 340.33 231.128 334.767 228.539C334.298 228.314 327.093 223.117 336.353 213.886Z" fill="#F3ABAA" />
	<path d="M475.838 479.763C475.838 479.763 495.126 455.851 499.404 430.982L352.196 403.664L272.551 449.997C252.204 460.363 228.957 490.899 239.783 540.75C249.436 585.216 259.952 646.296 260.055 646.953C272.983 653.912 287.906 656.23 302.336 653.519C314.136 651.139 325.23 646.074 334.757 638.716C334.419 636.643 318.396 569.737 311.98 534.239C309.831 522.353 310.01 512.269 320.657 506.556C320.657 506.556 344.579 495.552 352.196 491.63C355.827 489.754 362.056 486.002 368.303 482.137C351.418 503.319 346.811 510.918 343.913 515.777C334.419 531.725 322.167 544.024 329.935 597.073C333.528 621.614 342.524 645.189 355.264 683.22C358.134 691.775 361.183 701.044 364.41 711.26C364.41 711.26 386.109 714.656 407.479 707.507C430.284 699.909 439.506 681.644 439.506 681.644C400.105 590.732 400.237 576.51 410.875 551.66C415.265 541.359 450.641 508.141 475.838 479.763Z" fill="#0D0F44" />
	<path d="M369.421 478.037L365.584 464.491" stroke="white" stroke-width="0.844939" stroke-miterlimit="10" stroke-linecap="round" />
	<path d="M360.537 699.149C360.537 699.149 396.898 707.592 425.454 681.372" stroke="white" stroke-width="0.844939" stroke-miterlimit="10" stroke-linecap="round" />
	<path d="M258.003 635.217C258.003 635.217 279.138 647.009 303.426 639.045" stroke="white" stroke-width="0.844939" stroke-miterlimit="10" stroke-linecap="round" />
	<path d="M541.252 307.696C525.632 266.701 484.909 239.683 457.854 232.15C444.462 227.087 429.87 226.108 415.921 229.336C378.397 232.413 344.09 271.269 344.09 271.269C343.631 257.507 343.34 236.56 343.255 229.937C343.242 228.54 342.703 227.2 341.745 226.184C338.358 222.629 329.643 214.702 319.99 215.865C313.549 216.698 307.453 219.255 302.345 223.267C300.795 224.482 299.653 226.142 299.071 228.023C265.233 338.203 275.055 363.551 290.9 373.739C305.862 383.364 317.776 373.626 331.529 365.296C330.441 373.945 329.55 383.12 328.93 392.923C328.93 392.923 326.801 412.004 343.086 420.363C377.543 438.027 408.041 454.904 497.123 436.573C497.123 436.573 500.135 429.856 503.793 418.533C509.46 419.719 515.321 419.61 520.939 418.214C526.558 416.819 531.789 414.174 536.242 410.475C554.076 399.002 558.907 354.029 541.252 307.696Z" fill="#22319E" />
	<path d="M495.864 293.822C495.864 293.822 501.774 329.047 499.401 339.732" stroke="white" stroke-width="0.844939" stroke-miterlimit="10" stroke-linecap="round" />
	<path d="M377.196 257.658C377.196 257.658 351.389 275.885 333.443 356.478" stroke="white" stroke-width="0.844939" stroke-miterlimit="10" stroke-linecap="round" />
	<path d="M509.674 364.99C513.978 362.835 514.302 354.767 510.397 346.971C506.493 339.174 499.839 334.601 495.535 336.756C491.232 338.911 490.908 346.978 494.812 354.775C498.717 362.572 505.37 367.145 509.674 364.99Z" fill="#F3ABAA" />
	<path d="M583.793 106.069C583.793 106.069 592.629 139.119 581.869 154.851C573.295 167.375 586.701 165.648 586.701 165.648C586.701 165.648 600.528 165.77 598.539 136.408C596.748 109.878 583.793 106.069 583.793 106.069Z" fill="#FFD550" />
	<path d="M511.38 2.23982C516.193 -0.846542 522.122 -0.508825 527.328 1.82706C537.366 6.32996 558.576 18.4597 568.351 25.4767C581.429 34.8577 591.907 42.644 601.373 51.359C607.18 56.7156 613.043 68.6764 608.493 80.2151C602.32 95.8815 591.147 118.752 564.655 129.156C557.207 132.074 546.24 130.169 540.265 124.841C522.328 108.893 489.11 76.2563 483.687 54.0983C483.153 51.8771 483.284 49.5478 484.063 47.4002C487.018 39.1824 495.451 12.437 511.38 2.23982Z" fill="#FF2633" />
	<path d="M488.406 76.1532C488.406 76.1532 491.127 64.8302 510.292 49.0794C513.81 46.1901 518.641 44.3889 522.9 45.9649C532.281 49.5297 548.426 58.6294 562.704 86.6506C563.75 88.8069 564.185 91.2082 563.964 93.5943C563.742 95.9804 562.872 98.2604 561.447 100.187C556.531 106.979 548.895 114.691 522.91 123.171L488.406 76.1532Z" fill="#FF2633" />
	<path d="M524.132 122.524C528.693 118.871 524.312 105.822 514.347 93.379C504.382 80.9357 492.605 73.8099 488.043 77.4631C483.482 81.1163 487.863 94.1652 497.828 106.609C507.793 119.052 519.57 126.178 524.132 122.524Z" fill="#0D0F44" />
	<path d="M471.615 117.758C471.615 117.758 483.811 125.329 483.313 144.147C483.313 144.147 489.177 141.905 493.314 144.335C499.796 148.087 503.098 163.556 494.055 180.386C494.055 180.386 484.749 208.266 472.6 200.583L436.577 158.538L471.615 117.758Z" fill="#0D0F44" />
	<path d="M435.535 188.773C434.222 206.991 421.548 233.999 421.548 233.999C421.548 233.999 434.681 248.68 469.157 240.35C469.157 240.35 470.517 222.629 470.705 217.244C471.539 193.998 467.825 185.639 467.552 189.711L435.535 188.773Z" fill="#F3ABAA" />
	<path d="M428.922 215.818C428.922 215.818 453.313 221.447 470.621 202.826C470.574 202.066 470.527 201.343 470.471 200.649L433.247 201.794C432.037 206.578 430.489 211.4 428.922 215.818Z" fill="#0D0F44" />
	<path d="M447.536 210.152C468.291 210.152 485.116 193.327 485.116 172.571C485.116 151.816 468.291 134.991 447.536 134.991C426.781 134.991 409.955 151.816 409.955 172.571C409.955 193.327 426.781 210.152 447.536 210.152Z" fill="#F3ABAA" />
	<path d="M484.263 181.39C481.955 185.865 479.497 185.424 478.793 183.979C476.861 179.964 478.446 176.474 476.392 163.341C475.651 159.026 473.371 155.127 469.975 152.365C459.909 143.622 443.708 145.751 443.399 145.798C439.431 146.014 435.594 147.365 432.057 148.368C403.661 156.436 402.732 138.34 402.732 130.488C402.732 117.205 413.22 106.426 426.185 106.426C430.268 106.449 434.273 107.543 437.801 109.599C441.329 111.655 444.256 114.601 446.288 118.143C450.053 114.531 455.068 112.514 460.285 112.514C471.664 112.514 480.923 121.989 480.923 133.668C480.932 137.139 480.102 140.56 478.503 143.64C483.625 147.111 485.886 154.992 486.627 158.05C488.193 164.476 487.058 175.958 484.263 181.39Z" fill="#0D0F44" />
	<path d="M453.98 167.963C454.32 165.045 453.436 162.545 452.005 162.378C450.574 162.212 449.139 164.442 448.799 167.36C448.46 170.278 449.344 172.778 450.775 172.945C452.206 173.111 453.641 170.881 453.98 167.963Z" fill="#0D0F44" />
	<path d="M434.48 165.684C434.82 162.766 433.935 160.266 432.505 160.099C431.074 159.933 429.639 162.163 429.299 165.081C428.959 167.999 429.844 170.5 431.275 170.666C432.705 170.833 434.14 168.602 434.48 165.684Z" fill="#0D0F44" />
	<path d="M451.408 190.883C451.408 190.883 458.256 193.594 461.089 184.983" stroke="#0D0F44" stroke-width="0.844939" stroke-miterlimit="10" stroke-linecap="round" />
	<path d="M488.039 188.875C493.551 184.861 495.814 178.579 493.094 174.843C490.373 171.107 483.7 171.332 478.188 175.345C472.676 179.359 470.413 185.641 473.133 189.377C475.854 193.113 482.527 192.888 488.039 188.875Z" fill="#F3ABAA" />
	<path d="M478.791 183.979L489.889 179.232" stroke="#0D0F44" stroke-width="0.844939" stroke-miterlimit="10" stroke-linecap="round" />
	<path d="M441.522 167.769L439.073 178.238C439.003 178.542 438.996 178.857 439.054 179.164C439.111 179.471 439.232 179.763 439.409 180.02C439.585 180.278 439.813 180.496 440.079 180.661C440.344 180.825 440.64 180.933 440.95 180.977L443.464 181.38" stroke="#0D0F44" stroke-width="0.844939" stroke-miterlimit="10" stroke-linecap="round" />
	<path d="M86.9521 317.382L99.8511 327.561C100.536 328.106 101.343 328.476 102.202 328.639C103.062 328.803 103.949 328.755 104.785 328.499L120.48 323.649C121.442 323.349 122.469 323.325 123.445 323.58C124.42 323.834 125.305 324.357 125.998 325.088C126.691 325.82 127.166 326.731 127.368 327.719C127.57 328.706 127.491 329.73 127.141 330.675L121.437 346.079C121.133 346.9 121.033 347.782 121.145 348.65C121.258 349.518 121.58 350.345 122.084 351.06L131.55 364.494C132.13 365.317 132.469 366.286 132.527 367.291C132.585 368.296 132.361 369.297 131.88 370.182C131.399 371.066 130.68 371.798 129.804 372.295C128.928 372.792 127.931 373.034 126.925 372.993L110.508 372.337C109.633 372.301 108.762 372.478 107.971 372.854C107.18 373.23 106.492 373.793 105.968 374.494L96.1174 387.628C95.5123 388.426 94.697 389.04 93.7627 389.401C92.8284 389.762 91.812 389.856 90.8275 389.672C89.8429 389.487 88.9291 389.033 88.1883 388.359C87.4475 387.685 86.909 386.818 86.6332 385.855L82.1584 370.001C81.92 369.159 81.4815 368.388 80.8804 367.752C80.2792 367.117 79.5333 366.636 78.7062 366.352L63.1805 361.089C62.2266 360.765 61.3824 360.18 60.7436 359.402C60.1047 358.623 59.6968 357.68 59.566 356.681C59.4351 355.683 59.5866 354.667 60.0033 353.75C60.4199 352.833 61.0851 352.051 61.9235 351.492L75.5917 342.374C76.3206 341.89 76.9203 341.235 77.3388 340.467C77.7573 339.698 77.982 338.839 77.9932 337.964L78.1902 321.538C78.201 320.527 78.4957 319.54 79.0406 318.688C79.5856 317.837 80.3589 317.155 81.2724 316.722C82.1859 316.289 83.2027 316.121 84.207 316.238C85.2112 316.355 86.1624 316.751 86.9521 317.382Z" fill="#FFD550" />
	<path d="M138.82 132.557L28.4651 160.235C27.4508 160.494 26.3946 160.545 25.36 160.386C24.3253 160.227 23.3335 159.86 22.4441 159.308C21.5548 158.756 20.7862 158.03 20.1845 157.173C19.5828 156.316 19.1605 155.347 18.9428 154.323L1.05693 70.6305C0.832845 69.5872 0.825894 68.5089 1.03651 67.4627C1.24712 66.4166 1.67079 65.425 2.28114 64.5497C2.8915 63.6743 3.67548 62.934 4.5843 62.3747C5.49311 61.8154 6.50731 61.4492 7.56378 61.2987L120.394 45.2062C122.348 44.9208 124.337 45.3894 125.958 46.5167C127.579 47.644 128.71 49.3457 129.123 51.2766L144.509 123.384C144.933 125.352 144.576 127.407 143.515 129.118C142.454 130.829 140.771 132.061 138.82 132.557Z" fill="#BEDDFA" />
	<path d="M144.587 123.725C144.587 123.614 144.587 123.503 144.531 123.384L144.428 123.066C144.325 123.066 134.501 126.058 119.25 110.1C102.141 92.2142 87.8579 93.6742 77.328 96.9435C74.3899 97.9259 71.622 99.358 69.123 101.189C65.9529 97.749 61.8502 95.3062 57.3154 94.1583C49.9912 92.1507 38.3186 95.047 22.6148 102.776C17.6633 105.204 13.0926 107.759 9.43449 109.918L9.5932 110.624C21.7816 103.482 44.8572 91.4603 57.1329 94.8328C61.5156 95.9424 65.4839 98.2959 68.5596 101.609C61.4655 106.839 54.8634 115.242 53.2447 123.828C51.9116 130.89 54.1731 136.992 59.7912 141.484C61.1586 142.671 62.9351 143.277 64.7428 143.174C65.3461 143.123 65.9391 142.986 66.5044 142.769C71.2655 140.952 74.7252 133.985 75.7012 128.049C76.5686 122.227 76.1267 116.285 74.4078 110.656C73.3951 107.384 71.7506 104.343 69.5673 101.705C71.9877 99.9404 74.6637 98.5569 77.5025 97.6022C87.8183 94.3884 101.871 92.968 118.766 110.584C133.969 126.478 143.714 123.987 144.587 123.725ZM73.7809 110.862C75.4755 116.393 75.912 122.233 75.0585 127.954C74.1301 133.509 70.71 140.412 66.2822 142.126C64.2349 142.92 62.2035 142.507 60.2435 140.944C57.6563 139.027 55.6799 136.402 54.5533 133.385C53.4267 130.369 53.1982 127.091 53.8953 123.947C55.4824 115.496 62.0051 107.228 68.9722 102.101C71.1417 104.673 72.7765 107.651 73.7809 110.862Z" fill="white" />
	<path d="M470.004 437.521L357.084 419.246C352.816 418.556 348.97 416.27 346.325 412.851C343.679 409.432 342.431 405.136 342.834 400.831L350.198 322.031C350.996 313.588 358.379 308.222 366.869 307.846C384.514 307.077 404.618 306.449 428.624 308.625C451.73 310.726 469.141 313.381 482.537 315.661C498.288 318.334 504.057 327.303 502.903 339.592L495.595 417.717C495.314 420.739 494.415 423.67 492.954 426.33C491.493 428.989 489.5 431.32 487.1 433.177C484.7 435.034 481.944 436.378 479.003 437.125C476.062 437.872 472.999 438.007 470.004 437.521Z" fill="white" />
	<path d="M401.993 403.383L394.638 393.843L383.437 396.741C387.459 385.888 392.656 375.507 398.935 365.784L415.333 376.685C409.953 385.086 405.481 394.036 401.993 403.383ZM415.333 376.685L407.134 371.216L415.333 376.675V376.685Z" fill="#FF2633" />
	<path d="M425.22 404.79C421.468 389.865 420.304 372.942 420.258 372.229L439.958 370.934C439.958 371.094 441.037 386.816 444.357 399.968L433.1 395.831L425.22 404.79Z" fill="#FF2633" />
	<path d="M398.942 365.756C398.782 365.981 397.206 368.364 394.992 372.201C398.843 377.809 404.497 381.931 411.015 383.88C413.417 379.584 415.218 376.844 415.33 376.685L407.131 371.225L398.942 365.756Z" fill="#0D0F44" />
	<path d="M439.919 370.934L420.219 372.229C420.219 372.623 420.613 377.998 421.57 385.259C428.541 385.03 435.227 382.436 440.529 377.904C440.107 373.767 439.919 371 439.919 370.934Z" fill="#0D0F44" />
	<path d="M450.184 354.138C450.819 338.856 438.006 325.915 421.565 325.231C405.125 324.548 391.282 336.382 390.647 351.663C390.012 366.944 402.825 379.886 419.265 380.569C435.706 381.253 449.549 369.419 450.184 354.138Z" fill="#FF2633" />
	<path d="M423.363 340.53L425.371 346.384C425.481 346.694 425.663 346.973 425.903 347.198C426.143 347.424 426.433 347.588 426.75 347.678L432.716 349.329C433.081 349.432 433.41 349.635 433.666 349.914C433.922 350.194 434.095 350.539 434.165 350.912C434.235 351.284 434.2 351.669 434.063 352.023C433.927 352.376 433.694 352.685 433.392 352.913L428.448 356.665C428.185 356.863 427.974 357.122 427.833 357.419C427.693 357.717 427.627 358.044 427.641 358.373L427.913 364.555C427.929 364.934 427.838 365.31 427.652 365.64C427.466 365.971 427.191 366.242 426.858 366.425C426.525 366.607 426.148 366.693 425.77 366.673C425.391 366.652 425.025 366.526 424.714 366.309L419.648 362.754C419.378 362.565 419.066 362.445 418.739 362.404C418.412 362.363 418.08 362.403 417.772 362.519L411.975 364.677C411.62 364.808 411.235 364.838 410.864 364.762C410.493 364.687 410.151 364.51 409.875 364.251C409.599 363.991 409.401 363.661 409.303 363.295C409.205 362.93 409.211 362.544 409.32 362.182L411.13 356.271C411.231 355.954 411.252 355.617 411.191 355.29C411.131 354.963 410.991 354.655 410.783 354.395L406.89 349.508C406.656 349.21 406.51 348.854 406.468 348.478C406.426 348.102 406.489 347.722 406.651 347.38C406.812 347.038 407.066 346.748 407.384 346.542C407.701 346.336 408.069 346.223 408.447 346.215L414.639 346.102C414.97 346.094 415.294 346.003 415.582 345.84C415.87 345.676 416.113 345.444 416.29 345.164L419.714 340.005C419.924 339.678 420.224 339.418 420.577 339.257C420.931 339.095 421.323 339.039 421.708 339.094C422.092 339.15 422.453 339.315 422.746 339.569C423.04 339.824 423.254 340.157 423.363 340.53Z" fill="#FFD550" />
	<path d="M370.416 314.338C370.416 314.338 357.602 312.987 356.486 324.226L355.322 335.483" stroke="#DADEEB" stroke-width="1.26741" stroke-miterlimit="10" stroke-linecap="round" />
	<path d="M467.997 320.192C467.997 320.192 483.007 321.383 491.6 327.275" stroke="#DADEEB" stroke-width="1.26741" stroke-miterlimit="10" stroke-linecap="round" />
	<path d="M478.185 359.076C478.185 359.076 481.233 345.323 497.022 350.417C512.81 355.511 518.495 365.981 518.439 370.915C518.439 373.204 519.94 415.55 507.303 419.049C501.9 420.55 479.16 418.899 474.62 399.293C470.079 379.686 478.185 359.076 478.185 359.076Z" fill="#F3ABAA" />
	<path d="M481.288 357.491C481.288 357.491 492.761 359.142 498.408 363.842" stroke="#FF2633" stroke-width="0.844939" stroke-miterlimit="10" stroke-linecap="round" />
	<path d="M478.313 369.433C478.313 369.433 489.786 371.084 495.433 375.784" stroke="#FF2633" stroke-width="0.844939" stroke-miterlimit="10" stroke-linecap="round" />
	<path d="M476.981 380.305C476.981 380.305 488.501 381.956 494.13 386.647" stroke="#FF2633" stroke-width="0.844939" stroke-miterlimit="10" stroke-linecap="round" />
	<path d="M476.981 393.448C476.981 393.448 486.127 393.448 491.775 398.139" stroke="#FF2633" stroke-width="0.844939" stroke-miterlimit="10" stroke-linecap="round" />
	<path d="M522.675 48.8516C528.848 52.3787 553.763 68.8363 554.873 97.7032C554.873 102.144 553.763 112.581 544.881 114.357L535.998 117.688" stroke="white" stroke-linecap="round" />
</svg>
