<svg width="610" height="813" viewBox="0 0 610 813" fill="none" xmlns="http://www.w3.org/2000/svg">
	<path d="M267.604 635.627C267.604 635.627 270.005 665.885 256.939 685.828C243.873 705.771 231.156 718.488 238.721 741.901L337.049 692.049L325.02 623.968L267.604 635.627Z" fill="#FF2633" />
	<path d="M266.21 674.455L288.702 669.969" stroke="white" stroke-width="1.42936" stroke-miterlimit="10" stroke-linecap="round" />
	<path d="M371.279 698.847C371.279 698.847 378.779 729.588 368.631 752.277C358.484 774.966 347.498 790.166 359.157 812.943L452.108 745.339L428.448 677.261L371.279 698.847Z" fill="#FF2633" />
	<path d="M376.1 743.375L399.495 738.423" stroke="white" stroke-width="1.49021" stroke-miterlimit="10" stroke-linecap="round" />
	<path d="M299.519 222.329C299.519 222.329 293.506 192.028 304.088 181.371C314.669 170.714 331.893 166.042 340.805 167.797C346.865 169.007 354.736 171.774 355.815 187.647C356.894 203.52 354.511 208.82 354.511 208.82C354.511 208.82 348.554 229.768 337.128 231.775C325.702 233.783 303.459 233.727 299.519 222.329Z" fill="#F3ABAA" />
	<path d="M340.6 169.129C340.6 169.129 341.276 176.765 342.092 188.726" stroke="#FF2633" stroke-width="0.844939" stroke-miterlimit="10" stroke-linecap="round" />
	<path d="M326.012 171.924C326.012 171.924 327.316 182.797 329.399 194.823C330.881 203.323 339.427 205.931 342.945 198.754" stroke="#FF2633" stroke-width="0.844939" stroke-miterlimit="10" stroke-linecap="round" />
	<path d="M314.071 178.388C314.071 178.388 315.947 193.088 316.566 197.15C317.185 201.212 319.765 204.101 322.598 204.101C327.007 204.101 328.818 202.094 329.868 198.754" stroke="#FF2633" stroke-width="0.844939" stroke-miterlimit="10" stroke-linecap="round" />
	<path d="M316.584 200.105C316.584 200.105 314.445 204.195 312.306 204.946C310.167 205.696 305.88 205.884 304.613 202.919C303.544 200.415 302.906 197.141 303.122 192.122" stroke="#FF2633" stroke-width="0.844939" stroke-miterlimit="10" stroke-linecap="round" />
	<path d="M335.469 213.886C335.469 213.886 328.48 206.616 331.623 196.719C334.765 186.822 339.306 192.028 339.306 192.028C339.306 192.028 349.147 201.165 351.717 204.608C353.743 207.329 356.952 214.927 353.809 219.28C351.234 222.766 347.963 225.68 344.203 227.835C342.946 228.483 339.447 231.128 333.884 228.539C333.415 228.314 326.21 223.117 335.469 213.886Z" fill="#F3ABAA" />
	<path d="M474.955 479.763C474.955 479.763 494.242 455.851 498.52 430.982L351.313 403.664L271.667 449.997C251.32 460.363 228.074 490.899 238.899 540.75C248.553 585.216 259.069 646.296 259.172 646.953C272.1 653.912 287.023 656.23 301.452 653.519C313.252 651.139 324.346 646.074 333.873 638.716C333.536 636.643 317.513 569.737 311.096 534.239C308.948 522.353 309.126 512.269 319.774 506.556C319.774 506.556 343.695 495.552 351.313 491.63C354.943 489.754 361.172 486.002 367.42 482.137C350.534 503.319 345.928 510.918 343.029 515.777C333.536 531.725 321.284 544.024 329.051 597.073C332.644 621.614 341.641 645.189 354.38 683.22C357.251 691.775 360.3 701.044 363.527 711.26C363.527 711.26 385.225 714.656 406.595 707.507C429.401 699.909 438.622 681.644 438.622 681.644C399.222 590.732 399.353 576.51 409.991 551.66C414.381 541.359 449.757 508.141 474.955 479.763Z" fill="#0D0F44" />
	<path d="M368.537 478.037L364.701 464.491" stroke="white" stroke-width="0.844939" stroke-miterlimit="10" stroke-linecap="round" />
	<path d="M359.654 699.149C359.654 699.149 396.015 707.592 424.571 681.372" stroke="white" stroke-width="0.844939" stroke-miterlimit="10" stroke-linecap="round" />
	<path d="M257.119 635.217C257.119 635.217 278.255 647.009 302.542 639.045" stroke="white" stroke-width="0.844939" stroke-miterlimit="10" stroke-linecap="round" />
	<path d="M540.368 307.696C524.749 266.701 484.026 239.683 456.971 232.15C443.579 227.087 428.986 226.108 415.037 229.336C377.513 232.413 343.207 271.269 343.207 271.269C342.747 257.507 342.456 236.56 342.372 229.937C342.359 228.54 341.82 227.2 340.861 226.184C337.475 222.629 328.76 214.702 319.107 215.865C312.666 216.698 306.569 219.255 301.461 223.267C299.912 224.482 298.77 226.142 298.187 228.023C264.35 338.203 274.172 363.551 290.016 373.739C304.979 383.364 316.893 373.626 330.645 365.296C329.557 373.945 328.666 383.12 328.047 392.923C328.047 392.923 325.917 412.004 342.203 420.363C376.66 438.027 407.157 454.904 496.24 436.573C496.24 436.573 499.251 429.856 502.91 418.533C508.576 419.719 514.437 419.61 520.056 418.214C525.674 416.819 530.905 414.174 535.359 410.475C553.192 399.002 558.023 354.029 540.368 307.696Z" fill="#22319E" />
	<path d="M494.981 293.822C494.981 293.822 500.891 329.047 498.517 339.732" stroke="white" stroke-width="0.844939" stroke-miterlimit="10" stroke-linecap="round" />
	<path d="M376.313 257.658C376.313 257.658 350.506 275.885 332.56 356.478" stroke="white" stroke-width="0.844939" stroke-miterlimit="10" stroke-linecap="round" />
	<path d="M508.791 364.99C513.094 362.835 513.418 354.767 509.514 346.971C505.61 339.174 498.956 334.601 494.652 336.756C490.348 338.911 490.024 346.978 493.929 354.775C497.833 362.572 504.487 367.145 508.791 364.99Z" fill="#F3ABAA" />
	<path d="M582.909 106.069C582.909 106.069 591.746 139.119 580.986 154.851C572.412 167.375 585.817 165.648 585.817 165.648C585.817 165.648 599.645 165.77 597.656 136.408C595.864 109.878 582.909 106.069 582.909 106.069Z" fill="#FFD550" />
	<path d="M510.497 2.23982C515.309 -0.846542 521.238 -0.508825 526.445 1.82706C536.482 6.32996 557.693 18.4597 567.468 25.4767C580.545 34.8577 591.024 42.644 600.489 51.359C606.296 56.7156 612.159 68.6764 607.609 80.2151C601.437 95.8815 590.264 118.752 563.772 129.156C556.323 132.074 545.357 130.169 539.381 124.841C521.444 108.893 488.226 76.2563 482.804 54.0983C482.27 51.8771 482.4 49.5478 483.179 47.4002C486.134 39.1824 494.568 12.437 510.497 2.23982Z" fill="#FF2633" />
	<path d="M487.523 76.1532C487.523 76.1532 490.243 64.8302 509.409 49.0794C512.927 46.1901 517.758 44.3889 522.017 45.9649C531.398 49.5297 547.543 58.6294 561.821 86.6506C562.866 88.8069 563.302 91.2082 563.08 93.5943C562.858 95.9804 561.988 98.2604 560.564 100.187C555.648 106.979 548.012 114.691 522.026 123.171L487.523 76.1532Z" fill="#FF2633" />
	<path d="M523.248 122.524C527.81 118.871 523.429 105.822 513.463 93.379C503.498 80.9357 491.722 73.8099 487.16 77.4631C482.598 81.1163 486.979 94.1652 496.944 106.609C506.91 119.052 518.686 126.178 523.248 122.524Z" fill="#0D0F44" />
	<path d="M470.732 117.758C470.732 117.758 482.927 125.329 482.43 144.147C482.43 144.147 488.293 141.905 492.43 144.335C498.912 148.087 502.215 163.556 493.171 180.386C493.171 180.386 483.865 208.266 471.717 200.583L435.693 158.538L470.732 117.758Z" fill="#0D0F44" />
	<path d="M434.651 188.773C433.338 206.991 420.664 233.999 420.664 233.999C420.664 233.999 433.798 248.68 468.273 240.35C468.273 240.35 469.633 222.629 469.821 217.244C470.656 193.998 466.941 185.639 466.669 189.711L434.651 188.773Z" fill="#F3ABAA" />
	<path d="M428.039 215.818C428.039 215.818 452.43 221.447 469.738 202.826C469.691 202.066 469.644 201.343 469.588 200.649L432.364 201.794C431.153 206.578 429.606 211.4 428.039 215.818Z" fill="#0D0F44" />
	<path d="M446.652 210.152C467.407 210.152 484.233 193.327 484.233 172.571C484.233 151.816 467.407 134.991 446.652 134.991C425.897 134.991 409.072 151.816 409.072 172.571C409.072 193.327 425.897 210.152 446.652 210.152Z" fill="#F3ABAA" />
	<path d="M483.379 181.39C481.071 185.865 478.613 185.424 477.91 183.979C475.977 179.964 477.563 176.474 475.508 163.341C474.767 159.026 472.488 155.127 469.092 152.365C459.026 143.622 442.825 145.751 442.515 145.798C438.547 146.014 434.71 147.365 431.173 148.368C402.777 156.436 401.848 138.34 401.848 130.488C401.848 117.205 412.336 106.426 425.301 106.426C429.384 106.449 433.39 107.543 436.918 109.599C440.446 111.655 443.372 114.601 445.405 118.143C449.169 114.531 454.184 112.514 459.401 112.514C470.78 112.514 480.039 121.989 480.039 133.668C480.049 137.139 479.218 140.56 477.619 143.64C482.741 147.111 485.002 154.992 485.743 158.05C487.31 164.476 486.175 175.958 483.379 181.39Z" fill="#0D0F44" />
	<path d="M453.097 167.963C453.437 165.045 452.552 162.545 451.121 162.378C449.691 162.212 448.256 164.442 447.916 167.36C447.576 170.278 448.461 172.778 449.891 172.945C451.322 173.111 452.757 170.881 453.097 167.963Z" fill="#0D0F44" />
	<path d="M433.596 165.684C433.936 162.766 433.052 160.266 431.621 160.099C430.19 159.933 428.755 162.163 428.416 165.081C428.076 167.999 428.96 170.5 430.391 170.666C431.822 170.833 433.257 168.602 433.596 165.684Z" fill="#0D0F44" />
	<path d="M450.525 190.883C450.525 190.883 457.373 193.594 460.206 184.983" stroke="#0D0F44" stroke-width="0.844939" stroke-miterlimit="10" stroke-linecap="round" />
	<path d="M487.155 188.875C492.667 184.861 494.93 178.579 492.21 174.843C489.49 171.107 482.816 171.332 477.304 175.345C471.792 179.359 469.529 185.641 472.25 189.377C474.97 193.113 481.644 192.888 487.155 188.875Z" fill="#F3ABAA" />
	<path d="M477.907 183.979L489.005 179.232" stroke="#0D0F44" stroke-width="0.844939" stroke-miterlimit="10" stroke-linecap="round" />
	<path d="M440.638 167.769L438.19 178.238C438.119 178.542 438.112 178.857 438.17 179.164C438.228 179.471 438.349 179.763 438.525 180.02C438.702 180.278 438.93 180.496 439.195 180.661C439.46 180.825 439.757 180.933 440.066 180.977L442.58 181.38" stroke="#0D0F44" stroke-width="0.844939" stroke-miterlimit="10" stroke-linecap="round" />
	<path d="M86.0686 317.382L98.9675 327.561C99.6522 328.106 100.459 328.476 101.319 328.639C102.179 328.803 103.065 328.755 103.902 328.499L119.596 323.649C120.559 323.349 121.586 323.325 122.561 323.58C123.536 323.834 124.421 324.357 125.114 325.088C125.808 325.82 126.282 326.731 126.484 327.719C126.686 328.706 126.608 329.73 126.257 330.675L120.553 346.079C120.249 346.9 120.149 347.782 120.262 348.65C120.374 349.518 120.697 350.345 121.201 351.06L130.666 364.494C131.247 365.317 131.585 366.286 131.643 367.291C131.702 368.296 131.478 369.297 130.997 370.182C130.515 371.066 129.796 371.798 128.92 372.295C128.045 372.792 127.047 373.034 126.041 372.993L109.624 372.337C108.749 372.301 107.879 372.478 107.087 372.854C106.296 373.23 105.609 373.793 105.084 374.494L95.2339 387.628C94.6288 388.426 93.8135 389.04 92.8792 389.401C91.9448 389.762 90.9285 389.856 89.9439 389.672C88.9594 389.487 88.0455 389.033 87.3047 388.359C86.5639 387.685 86.0254 386.818 85.7496 385.855L81.2749 370.001C81.0364 369.159 80.598 368.388 79.9968 367.752C79.3957 367.117 78.6497 366.636 77.8226 366.352L62.297 361.089C61.343 360.765 60.4989 360.18 59.86 359.402C59.2212 358.623 58.8132 357.68 58.6824 356.681C58.5516 355.683 58.7031 354.667 59.1197 353.75C59.5364 352.833 60.2016 352.051 61.0399 351.492L74.7081 342.374C75.437 341.89 76.0368 341.235 76.4553 340.467C76.8738 339.698 77.0984 338.839 77.1097 337.964L77.3067 321.538C77.3174 320.527 77.6121 319.54 78.1571 318.688C78.7021 317.837 79.4754 317.155 80.3889 316.722C81.3023 316.289 82.3192 316.121 83.3234 316.238C84.3277 316.355 85.2789 316.751 86.0686 317.382Z" fill="#FFD550" />
	<path d="M137.936 132.557L27.5815 160.235C26.5673 160.494 25.5111 160.545 24.4764 160.386C23.4418 160.227 22.45 159.86 21.5606 159.308C20.6712 158.756 19.9026 158.03 19.3009 157.173C18.6993 156.316 18.2769 155.347 18.0593 154.323L0.173382 70.6305C-0.0506996 69.5872 -0.0576505 68.5089 0.152961 67.4627C0.363573 66.4166 0.787241 65.425 1.3976 64.5497C2.00795 63.6743 2.79193 62.934 3.70075 62.3747C4.60957 61.8154 5.62377 61.4492 6.68024 61.2987L119.511 45.2062C121.464 44.9208 123.453 45.3894 125.074 46.5167C126.695 47.644 127.827 49.3457 128.239 51.2766L143.626 123.384C144.049 125.352 143.693 127.407 142.632 129.118C141.571 130.829 139.887 132.061 137.936 132.557Z" fill="#BEDDFA" />
	<path d="M143.703 123.725C143.703 123.614 143.703 123.503 143.648 123.384L143.544 123.066C143.441 123.066 133.617 126.058 118.366 110.1C101.258 92.2142 86.9744 93.6742 76.4444 96.9435C73.5063 97.9259 70.7384 99.358 68.2394 101.189C65.0693 97.749 60.9667 95.3062 56.4319 94.1583C49.1077 92.1507 37.435 95.047 21.7313 102.776C16.7797 105.204 12.2091 107.759 8.55095 109.918L8.70965 110.624C20.8981 103.482 43.9736 91.4603 56.2494 94.8328C60.6321 95.9424 64.6003 98.2959 67.676 101.609C60.582 106.839 53.9799 115.242 52.3611 123.828C51.028 130.89 53.2895 136.992 58.9076 141.484C60.2751 142.671 62.0516 143.277 63.8592 143.174C64.4625 143.123 65.0556 142.986 65.6208 142.769C70.3819 140.952 73.8417 133.985 74.8177 128.049C75.685 122.227 75.2432 116.285 73.5243 110.656C72.5116 107.384 70.8671 104.343 68.6838 101.705C71.1041 99.9404 73.7802 98.5569 76.619 97.6022C86.9347 94.3884 100.988 92.968 117.882 110.584C133.086 126.478 142.83 123.987 143.703 123.725ZM72.8974 110.862C74.592 116.393 75.0285 122.233 74.1749 127.954C73.2465 133.509 69.8265 140.412 65.3986 142.126C63.3514 142.92 61.3199 142.507 59.36 140.944C56.7728 139.027 54.7963 136.402 53.6698 133.385C52.5432 130.369 52.3146 127.091 53.0118 123.947C54.5988 115.496 61.1216 107.228 68.0887 102.101C70.2581 104.673 71.8929 107.651 72.8974 110.862Z" fill="white" />
	<path d="M469.12 437.521L356.201 419.246C351.933 418.556 348.087 416.27 345.441 412.851C342.796 409.432 341.548 405.136 341.951 400.831L349.315 322.031C350.112 313.588 357.495 308.222 365.985 307.846C383.631 307.077 403.734 306.449 427.74 308.625C450.846 310.726 468.257 313.381 481.653 315.661C497.404 318.334 503.174 327.303 502.02 339.592L494.712 417.717C494.431 420.739 493.532 423.67 492.07 426.33C490.609 428.989 488.617 431.32 486.217 433.177C483.817 435.034 481.061 436.378 478.12 437.125C475.179 437.872 472.116 438.007 469.12 437.521Z" fill="white" />
	<path d="M401.11 403.383L393.755 393.843L382.554 396.741C386.575 385.888 391.772 375.507 398.051 365.784L414.449 376.685C409.069 385.086 404.598 394.036 401.11 403.383ZM414.449 376.685L406.25 371.216L414.449 376.675V376.685Z" fill="#FF2633" />
	<path d="M424.337 404.79C420.584 389.865 419.421 372.942 419.374 372.229L439.074 370.934C439.074 371.094 440.153 386.816 443.474 399.968L432.217 395.831L424.337 404.79Z" fill="#FF2633" />
	<path d="M398.058 365.756C397.899 365.981 396.323 368.364 394.109 372.201C397.959 377.809 403.614 381.931 410.132 383.88C412.533 379.584 414.334 376.844 414.447 376.685L406.248 371.225L398.058 365.756Z" fill="#0D0F44" />
	<path d="M439.036 370.934L419.335 372.229C419.335 372.623 419.729 377.998 420.686 385.259C427.658 385.03 434.343 382.436 439.645 377.904C439.223 373.767 439.036 371 439.036 370.934Z" fill="#0D0F44" />
	<path d="M449.3 354.138C449.936 338.856 437.123 325.915 420.682 325.231C404.241 324.548 390.399 336.382 389.763 351.663C389.128 366.944 401.941 379.886 418.382 380.569C434.823 381.253 448.665 369.419 449.3 354.138Z" fill="#FF2633" />
	<path d="M422.48 340.53L424.487 346.384C424.597 346.694 424.78 346.973 425.02 347.198C425.26 347.424 425.55 347.588 425.866 347.678L431.833 349.329C432.197 349.432 432.526 349.635 432.782 349.914C433.038 350.194 433.211 350.539 433.281 350.912C433.351 351.284 433.316 351.669 433.18 352.023C433.043 352.376 432.81 352.685 432.508 352.913L427.564 356.665C427.301 356.863 427.09 357.122 426.95 357.419C426.809 357.717 426.743 358.044 426.757 358.373L427.03 364.555C427.045 364.934 426.955 365.31 426.769 365.64C426.582 365.971 426.307 366.242 425.974 366.425C425.642 366.607 425.265 366.693 424.886 366.673C424.507 366.652 424.142 366.526 423.831 366.309L418.765 362.754C418.495 362.565 418.183 362.445 417.856 362.404C417.529 362.363 417.197 362.403 416.889 362.519L411.091 364.677C410.736 364.808 410.352 364.838 409.981 364.762C409.61 364.687 409.267 364.51 408.992 364.251C408.716 363.991 408.518 363.661 408.42 363.295C408.322 362.93 408.327 362.544 408.436 362.182L410.247 356.271C410.347 355.954 410.368 355.617 410.308 355.29C410.247 354.963 410.107 354.655 409.9 354.395L406.007 349.508C405.773 349.21 405.627 348.854 405.584 348.478C405.542 348.102 405.605 347.722 405.767 347.38C405.929 347.038 406.183 346.748 406.5 346.542C406.817 346.336 407.186 346.223 407.564 346.215L413.755 346.102C414.086 346.094 414.41 346.003 414.698 345.84C414.986 345.676 415.229 345.444 415.406 345.164L418.83 340.005C419.041 339.678 419.34 339.418 419.694 339.257C420.047 339.095 420.439 339.039 420.824 339.094C421.209 339.15 421.569 339.315 421.863 339.569C422.156 339.824 422.37 340.157 422.48 340.53Z" fill="#FFD550" />
	<path d="M369.533 314.338C369.533 314.338 356.718 312.987 355.602 324.226L354.439 335.483" stroke="#DADEEB" stroke-width="1.26741" stroke-miterlimit="10" stroke-linecap="round" />
	<path d="M467.113 320.192C467.113 320.192 482.123 321.383 490.716 327.275" stroke="#DADEEB" stroke-width="1.26741" stroke-miterlimit="10" stroke-linecap="round" />
	<path d="M477.301 359.076C477.301 359.076 480.35 345.323 496.138 350.417C511.926 355.511 517.611 365.981 517.555 370.915C517.555 373.204 519.056 415.55 506.42 419.049C501.016 420.55 478.277 418.899 473.736 399.293C469.196 379.686 477.301 359.076 477.301 359.076Z" fill="#F3ABAA" />
	<path d="M480.404 357.491C480.404 357.491 491.877 359.142 497.525 363.842" stroke="#FF2633" stroke-width="0.844939" stroke-miterlimit="10" stroke-linecap="round" />
	<path d="M477.43 369.433C477.43 369.433 488.903 371.084 494.55 375.784" stroke="#FF2633" stroke-width="0.844939" stroke-miterlimit="10" stroke-linecap="round" />
	<path d="M476.097 380.305C476.097 380.305 487.617 381.956 493.246 386.647" stroke="#FF2633" stroke-width="0.844939" stroke-miterlimit="10" stroke-linecap="round" />
	<path d="M476.097 393.448C476.097 393.448 485.244 393.448 490.891 398.139" stroke="#FF2633" stroke-width="0.844939" stroke-miterlimit="10" stroke-linecap="round" />
	<path d="M521.792 48.8516C527.964 52.3787 552.879 68.8363 553.989 97.7032C553.989 102.144 552.879 112.581 543.997 114.357L535.115 117.688" stroke="white" stroke-linecap="round" />
</svg>
